<?xml version="1.0" encoding="UTF-8" standalone="no"?>
<!-- Created with Inkscape (http://www.inkscape.org/) -->

<svg
   xmlns:dc="http://purl.org/dc/elements/1.1/"
   xmlns:cc="http://creativecommons.org/ns#"
   xmlns:rdf="http://www.w3.org/1999/02/22-rdf-syntax-ns#"
   xmlns:svg="http://www.w3.org/2000/svg"
   xmlns="http://www.w3.org/2000/svg"
   xmlns:sodipodi="http://sodipodi.sourceforge.net/DTD/sodipodi-0.dtd"
   xmlns:inkscape="http://www.inkscape.org/namespaces/inkscape"
   width="135"
   height="135"
   id="svg2"
   version="1.1"
   inkscape:version="0.48.5 r10040"
   sodipodi:docname="sticker.svg">
  <defs
     id="defs4" />
  <sodipodi:namedview
     id="base"
     pagecolor="#ffffff"
     bordercolor="#666666"
     borderopacity="1.0"
     inkscape:pageopacity="0.0"
     inkscape:pageshadow="2"
     inkscape:zoom="1.979899"
     inkscape:cx="37.138921"
     inkscape:cy="117.95612"
     inkscape:document-units="px"
     inkscape:current-layer="layer1"
     showgrid="false"
     units="in"
     inkscape:window-width="1366"
     inkscape:window-height="721"
     inkscape:window-x="0"
     inkscape:window-y="1"
     inkscape:window-maximized="1" />
  <metadata
     id="metadata7">
    <rdf:RDF>
      <cc:Work
         rdf:about="">
        <dc:format>image/svg+xml</dc:format>
        <dc:type
           rdf:resource="http://purl.org/dc/dcmitype/StillImage" />
        <dc:title></dc:title>
      </cc:Work>
    </rdf:RDF>
  </metadata>
  <g
     inkscape:label="Layer 1"
     inkscape:groupmode="layer"
     id="layer1"
     transform="translate(0,-917.35975)">
    <path
       sodipodi:type="arc"
       style="fill:#cccccc;stroke-width:10;stroke-miterlimit:4;stroke-dasharray:none"
       id="path3013"
       sodipodi:cx="68.214287"
       sodipodi:cy="68.214287"
       sodipodi:rx="67.5"
       sodipodi:ry="67.5"
       d="m 135.71429,68.214287 a 67.5,67.5 0 1 1 -135.0000032,0 67.5,67.5 0 1 1 135.0000032,0 z"
       transform="translate(0,917.35975)" />
    <g
       transform="matrix(5.8396368,0,0,5.8396368,473.19241,780.16155)"
       style="font-size:72px;font-style:normal;font-variant:normal;font-weight:500;font-stretch:normal;text-align:center;line-height:125%;letter-spacing:0px;word-spacing:0px;writing-mode:lr-tb;text-anchor:middle;fill:#000000;fill-opacity:1;stroke:none;font-family:Century Schoolbook L;-inkscape-font-specification:Century Schoolbook L Medium"
       id="text3004">
      <path
         d="m -72.291801,45.318857 c 6.407993,-4.391996 9.432,-8.784005 9.432,-13.824 0,-4.319996 -2.376004,-7.128 -5.904,-7.128 -2.663998,0 -4.68,1.872002 -4.68,4.32 0,2.591997 1.944003,4.248 4.896,4.248 0.287999,0 1.008,0 1.152,-0.072 l 0.216,0 c 0.359999,0 0.504,0.216 0.504,0.648 0,3.023997 -2.448005,6.408003 -7.272,9.792 l 1.656,2.016"
         id="path3009"
         inkscape:connector-curvature="0" />
    </g>
  </g>
</svg>
